<svg xmlns="http://www.w3.org/2000/svg" width="1024" height="1024">
  <path d="M150.016 873.984C53.579 780.75-6.291 650.222-6.291 505.707c0-282.77 229.23-512 512-512 144.514 0 275.043 59.872 368.138 156.163l.138.144c88.925 91.979 143.725 217.435 143.725 355.691 0 282.77-229.23 512-512 512-138.256 0-263.714-54.798-355.837-143.862l.144.138zm72.192-72.192C296.373 875.955 398.829 921.827 512 921.827c226.342 0 409.827-183.486 409.827-409.827 0-113.171-45.872-215.627-120.035-289.792C727.627 148.045 625.171 102.171 512 102.171c-226.342 0-409.827 183.486-409.827 409.827 0 113.171 45.872 215.627 120.037 289.792zm506.88-434.688L584.192 512l144.896 144.896-72.192 72.192L512 584.192 367.104 729.088l-72.192-72.192L439.808 512 294.912 367.104l72.192-72.192L512 439.808l144.896-144.896 72.192 72.192z"/>
</svg>
